# xmcd
#
# Track frame offsets:
#	150
#	26860
#	48129
#	62108
#	74933
#	88481
#	105693
#	118783
#	132871
#	149595
#	168862
#	190201
#	211804
#	227524
#	247701
#	268258
#
# Disc length: 3856 seconds
#
# Revision: 1
# Processed by: cddbd v1.5.2PL0 Copyright (c) Steve Scherf et al.
# Submitted via: audiograbber 1.83.01
#
DISCID=f20f0e10
DTITLE=Peter Green Splinter Group - The very best of Peter Green Splinter Group
DTITLE=[CD 2)
DYEAR=2012
DGENRE=Blues
TTITLE0=Burglar
TTITLE1=Hiding in Shadows
TTITLE2=Man of the World
TTITLE3=Dead Shrimp Blues
TTITLE4=Little Queen of Spades
TTITLE5=They're Red Hot
TTITLE6=Cross Road Blues
TTITLE7=Come On in My Kitchen
TTITLE8=Downsize Blues (Repossess My Body)
TTITLE9=Feeling Good
TTITLE10=Time Keeps Slipping Away
TTITLE11=Underway
TTITLE12=Ain't Nothin' Gonna Chnage It
TTITLE13=Look Out for Yourself
TTITLE14=Don't Walk Away
TTITLE15=I'm Ready for You
EXTD=
EXTT0=
EXTT1=
EXTT2=
EXTT3=
EXTT4=
EXTT5=
EXTT6=
EXTT7=
EXTT8=
EXTT9=
EXTT10=
EXTT11=
EXTT12=
EXTT13=
EXTT14=
EXTT15=
PLAYORDER=
